<svg width="27" height="27" viewBox="0 0 27 27" fill="none" xmlns="http://www.w3.org/2000/svg">
<path d="M2.25 24.75H24.75" stroke="#8E8E8E" stroke-width="1.5" stroke-miterlimit="10" stroke-linecap="round" stroke-linejoin="round"/>
<path d="M16.8863 24.7391L3.38626 24.7616L3.375 7.95408C3.375 7.20033 3.75752 6.50279 4.37627 6.08654L8.87627 3.08281C9.63002 2.57656 10.62 2.57656 11.3737 3.08281L15.8737 6.08654C16.5037 6.50279 16.875 7.20033 16.875 7.95408L16.8863 24.7391Z" stroke="#8E8E8E" stroke-width="1.5" stroke-miterlimit="10" stroke-linecap="round" stroke-linejoin="round"/>
<path d="M22.4775 24.7613V20.25" stroke="#8E8E8E" stroke-width="1.5" stroke-miterlimit="10" stroke-linecap="round" stroke-linejoin="round"/>
<path d="M22.5 13.5C21.2625 13.5 20.25 14.5125 20.25 15.75V18C20.25 19.2375 21.2625 20.25 22.5 20.25C23.7375 20.25 24.75 19.2375 24.75 18V15.75C24.75 14.5125 23.7375 13.5 22.5 13.5Z" stroke="#8E8E8E" stroke-width="1.5" stroke-miterlimit="10" stroke-linecap="round" stroke-linejoin="round"/>
<path d="M3.375 15.75H16.875" stroke="#8E8E8E" stroke-width="1.5" stroke-miterlimit="10" stroke-linecap="round" stroke-linejoin="round"/>
<path d="M10.125 24.75V20.5312" stroke="#8E8E8E" stroke-width="1.5" stroke-miterlimit="10" stroke-linecap="round" stroke-linejoin="round"/>
<path d="M10.125 11.8125C11.057 11.8125 11.8125 11.057 11.8125 10.125C11.8125 9.19302 11.057 8.4375 10.125 8.4375C9.19302 8.4375 8.4375 9.19302 8.4375 10.125C8.4375 11.057 9.19302 11.8125 10.125 11.8125Z" stroke="#8E8E8E" stroke-width="1.5" stroke-miterlimit="10" stroke-linecap="round" stroke-linejoin="round"/>
</svg>
